<mxfile host="Electron" agent="Mozilla/5.0 (Windows NT 10.0; Win64; x64) AppleWebKit/537.36 (KHTML, like Gecko) draw.io/24.7.17 Chrome/128.0.6613.36 Electron/32.0.1 Safari/537.36" version="24.7.17">
  <diagram name="Страница — 1" id="Ja0E_rwnNiDNWKprL7eD">
    <mxGraphModel dx="1449" dy="1406" grid="1" gridSize="10" guides="1" tooltips="1" connect="1" arrows="1" fold="1" page="1" pageScale="1" pageWidth="827" pageHeight="1169" math="0" shadow="0">
      <root>
        <mxCell id="0" />
        <mxCell id="1" parent="0" />
        <mxCell id="g9a4YSTHyK9KnUphNbtU-3" value="&lt;font style=&quot;font-size: 17px;&quot;&gt;Сервис ставок&lt;/font&gt;" style="rounded=1;whiteSpace=wrap;html=1;sketch=1;hachureGap=4;jiggle=2;curveFitting=1;fontFamily=Architects Daughter;fontSource=https%3A%2F%2Ffonts.googleapis.com%2Fcss%3Ffamily%3DArchitects%2BDaughter;fillColor=#fad9d5;strokeColor=#ae4132;" vertex="1" parent="1">
          <mxGeometry x="20" y="245" width="140" height="125" as="geometry" />
        </mxCell>
        <mxCell id="g9a4YSTHyK9KnUphNbtU-4" value="&lt;h1&gt;&lt;font style=&quot;font-size: 30px;&quot;&gt;Q1&lt;/font&gt;&lt;/h1&gt;" style="rounded=1;whiteSpace=wrap;html=1;sketch=1;hachureGap=4;jiggle=2;curveFitting=1;fontFamily=Architects Daughter;fontSource=https%3A%2F%2Ffonts.googleapis.com%2Fcss%3Ffamily%3DArchitects%2BDaughter;fillColor=#1ba1e2;strokeColor=#006EAF;fontColor=#121111;" vertex="1" parent="1">
          <mxGeometry x="170" y="205" width="590" height="30" as="geometry" />
        </mxCell>
        <mxCell id="g9a4YSTHyK9KnUphNbtU-6" value="&lt;h1&gt;&lt;font style=&quot;font-size: 30px;&quot;&gt;Q2&lt;/font&gt;&lt;/h1&gt;" style="rounded=1;whiteSpace=wrap;html=1;sketch=1;hachureGap=4;jiggle=2;curveFitting=1;fontFamily=Architects Daughter;fontSource=https%3A%2F%2Ffonts.googleapis.com%2Fcss%3Ffamily%3DArchitects%2BDaughter;fillColor=#1ba1e2;fontColor=#121111;strokeColor=#006EAF;align=center;verticalAlign=middle;fontSize=12;" vertex="1" parent="1">
          <mxGeometry x="770" y="205" width="570" height="30" as="geometry" />
        </mxCell>
        <mxCell id="g9a4YSTHyK9KnUphNbtU-8" value="&lt;font style=&quot;font-size: 17px;&quot;&gt;Инфраструктура&lt;/font&gt;" style="rounded=1;whiteSpace=wrap;html=1;sketch=1;hachureGap=4;jiggle=2;curveFitting=1;fontFamily=Architects Daughter;fontSource=https%3A%2F%2Ffonts.googleapis.com%2Fcss%3Ffamily%3DArchitects%2BDaughter;fillColor=#fad9d5;strokeColor=#ae4132;" vertex="1" parent="1">
          <mxGeometry x="20" y="380" width="140" height="60" as="geometry" />
        </mxCell>
        <mxCell id="g9a4YSTHyK9KnUphNbtU-9" value="&lt;font style=&quot;font-size: 17px;&quot;&gt;Кол-центр&lt;/font&gt;" style="rounded=1;whiteSpace=wrap;html=1;sketch=1;hachureGap=4;jiggle=2;curveFitting=1;fontFamily=Architects Daughter;fontSource=https%3A%2F%2Ffonts.googleapis.com%2Fcss%3Ffamily%3DArchitects%2BDaughter;fillColor=#fad9d5;strokeColor=#ae4132;" vertex="1" parent="1">
          <mxGeometry x="20" y="450" width="140" height="90" as="geometry" />
        </mxCell>
        <mxCell id="g9a4YSTHyK9KnUphNbtU-10" value="&lt;font style=&quot;font-size: 17px;&quot;&gt;Партнерский кол-центр&lt;/font&gt;" style="rounded=1;whiteSpace=wrap;html=1;sketch=1;hachureGap=4;jiggle=2;curveFitting=1;fontFamily=Architects Daughter;fontSource=https%3A%2F%2Ffonts.googleapis.com%2Fcss%3Ffamily%3DArchitects%2BDaughter;fillColor=#fad9d5;strokeColor=#ae4132;" vertex="1" parent="1">
          <mxGeometry x="20" y="550" width="140" height="60" as="geometry" />
        </mxCell>
        <mxCell id="g9a4YSTHyK9KnUphNbtU-11" value="&lt;font style=&quot;font-size: 17px;&quot;&gt;Орг задачи&lt;/font&gt;" style="rounded=1;whiteSpace=wrap;html=1;sketch=1;hachureGap=4;jiggle=2;curveFitting=1;fontFamily=Architects Daughter;fontSource=https%3A%2F%2Ffonts.googleapis.com%2Fcss%3Ffamily%3DArchitects%2BDaughter;fillColor=#fad9d5;strokeColor=#ae4132;" vertex="1" parent="1">
          <mxGeometry x="20" y="620" width="140" height="60" as="geometry" />
        </mxCell>
        <mxCell id="g9a4YSTHyK9KnUphNbtU-12" value="&lt;font style=&quot;font-size: 16px;&quot;&gt;Разработка выгрузки в файл&lt;/font&gt;" style="rounded=1;whiteSpace=wrap;html=1;sketch=1;hachureGap=4;jiggle=2;curveFitting=1;fontFamily=Architects Daughter;fontSource=https%3A%2F%2Ffonts.googleapis.com%2Fcss%3Ffamily%3DArchitects%2BDaughter;fillColor=#e1d5e7;strokeColor=#9673a6;" vertex="1" parent="1">
          <mxGeometry x="460" y="260" width="290" height="40" as="geometry" />
        </mxCell>
        <mxCell id="g9a4YSTHyK9KnUphNbtU-13" value="&lt;font style=&quot;font-size: 16px;&quot;&gt;Реализация шифрования&lt;/font&gt;" style="rounded=1;whiteSpace=wrap;html=1;sketch=1;hachureGap=4;jiggle=2;curveFitting=1;fontFamily=Architects Daughter;fontSource=https%3A%2F%2Ffonts.googleapis.com%2Fcss%3Ffamily%3DArchitects%2BDaughter;fillColor=#e1d5e7;strokeColor=#9673a6;" vertex="1" parent="1">
          <mxGeometry x="460" y="315" width="290" height="40" as="geometry" />
        </mxCell>
        <mxCell id="g9a4YSTHyK9KnUphNbtU-14" value="&lt;font style=&quot;font-size: 16px;&quot;&gt;Развертывание SFTP сервера&lt;/font&gt;" style="rounded=1;whiteSpace=wrap;html=1;sketch=1;hachureGap=4;jiggle=2;curveFitting=1;fontFamily=Architects Daughter;fontSource=https%3A%2F%2Ffonts.googleapis.com%2Fcss%3Ffamily%3DArchitects%2BDaughter;fillColor=#e1d5e7;strokeColor=#9673a6;" vertex="1" parent="1">
          <mxGeometry x="170" y="390" width="290" height="40" as="geometry" />
        </mxCell>
        <mxCell id="g9a4YSTHyK9KnUphNbtU-15" value="&lt;font style=&quot;font-size: 16px;&quot;&gt;Интеграция с сервисом ставок&lt;/font&gt;" style="rounded=1;whiteSpace=wrap;html=1;sketch=1;hachureGap=4;jiggle=2;curveFitting=1;fontFamily=Architects Daughter;fontSource=https%3A%2F%2Ffonts.googleapis.com%2Fcss%3Ffamily%3DArchitects%2BDaughter;fillColor=#e1d5e7;strokeColor=#9673a6;" vertex="1" parent="1">
          <mxGeometry x="700" y="460" width="350" height="40" as="geometry" />
        </mxCell>
        <mxCell id="g9a4YSTHyK9KnUphNbtU-16" value="&lt;font style=&quot;font-size: 16px;&quot;&gt;Доработка интерфейса&lt;/font&gt;" style="rounded=1;whiteSpace=wrap;html=1;sketch=1;hachureGap=4;jiggle=2;curveFitting=1;fontFamily=Architects Daughter;fontSource=https%3A%2F%2Ffonts.googleapis.com%2Fcss%3Ffamily%3DArchitects%2BDaughter;fillColor=#e1d5e7;strokeColor=#9673a6;" vertex="1" parent="1">
          <mxGeometry x="820" y="500" width="230" height="40" as="geometry" />
        </mxCell>
        <mxCell id="g9a4YSTHyK9KnUphNbtU-17" value="&lt;span style=&quot;font-size: 16px;&quot;&gt;Разработка загрузки файла&lt;/span&gt;" style="rounded=1;whiteSpace=wrap;html=1;sketch=1;hachureGap=4;jiggle=2;curveFitting=1;fontFamily=Architects Daughter;fontSource=https%3A%2F%2Ffonts.googleapis.com%2Fcss%3Ffamily%3DArchitects%2BDaughter;fillColor=#e1d5e7;strokeColor=#9673a6;" vertex="1" parent="1">
          <mxGeometry x="760" y="565" width="290" height="40" as="geometry" />
        </mxCell>
        <mxCell id="g9a4YSTHyK9KnUphNbtU-18" value="&lt;span style=&quot;font-size: 16px;&quot;&gt;Документирование&lt;/span&gt;" style="rounded=1;whiteSpace=wrap;html=1;sketch=1;hachureGap=4;jiggle=2;curveFitting=1;fontFamily=Architects Daughter;fontSource=https%3A%2F%2Ffonts.googleapis.com%2Fcss%3Ffamily%3DArchitects%2BDaughter;fillColor=#e1d5e7;strokeColor=#9673a6;" vertex="1" parent="1">
          <mxGeometry x="170" y="630" width="220" height="40" as="geometry" />
        </mxCell>
        <mxCell id="g9a4YSTHyK9KnUphNbtU-19" value="&lt;font style=&quot;font-size: 16px;&quot;&gt;Тестирование и запуск&lt;/font&gt;" style="rounded=1;whiteSpace=wrap;html=1;sketch=1;hachureGap=4;jiggle=2;curveFitting=1;fontFamily=Architects Daughter;fontSource=https%3A%2F%2Ffonts.googleapis.com%2Fcss%3Ffamily%3DArchitects%2BDaughter;fillColor=#e1d5e7;strokeColor=#9673a6;" vertex="1" parent="1">
          <mxGeometry x="1050" y="245" width="290" height="435" as="geometry" />
        </mxCell>
        <mxCell id="g9a4YSTHyK9KnUphNbtU-20" value="&lt;font style=&quot;font-size: 16px;&quot;&gt;Разработка API для интеграции с кол-центром&lt;/font&gt;" style="rounded=1;whiteSpace=wrap;html=1;sketch=1;hachureGap=4;jiggle=2;curveFitting=1;fontFamily=Architects Daughter;fontSource=https%3A%2F%2Ffonts.googleapis.com%2Fcss%3Ffamily%3DArchitects%2BDaughter;fillColor=#e1d5e7;strokeColor=#9673a6;" vertex="1" parent="1">
          <mxGeometry x="170" y="310" width="290" height="50" as="geometry" />
        </mxCell>
      </root>
    </mxGraphModel>
  </diagram>
</mxfile>
